<?xml version="1.0" encoding="UTF-8" standalone="no"?>
<!-- Created with Inkscape (http://www.inkscape.org/) -->

<svg
   xmlns:dc="http://purl.org/dc/elements/1.1/"
   xmlns:cc="http://creativecommons.org/ns#"
   xmlns:rdf="http://www.w3.org/1999/02/22-rdf-syntax-ns#"
   xmlns:svg="http://www.w3.org/2000/svg"
   xmlns="http://www.w3.org/2000/svg"
   xmlns:sodipodi="http://sodipodi.sourceforge.net/DTD/sodipodi-0.dtd"
   xmlns:inkscape="http://www.inkscape.org/namespaces/inkscape"
   width="1600px"
   height="1200px"
   id="svg5745"
   version="1.1"
   inkscape:version="0.48.3.1 r9886"
   sodipodi:docname="consersion_viennamesh.svg">
  <defs
     id="defs5747">
    <marker
       inkscape:stockid="Arrow1Lend"
       orient="auto"
       refY="0.0"
       refX="0.0"
       id="Arrow1Lend"
       style="overflow:visible;">
      <path
         id="path3805"
         d="M 0.0,0.0 L 5.0,-5.0 L -12.5,0.0 L 5.0,5.0 L 0.0,0.0 z "
         style="fill-rule:evenodd;stroke:#000000;stroke-width:1.0pt;"
         transform="scale(0.8) rotate(180) translate(12.5,0)" />
    </marker>
    <marker
       inkscape:stockid="Arrow1Lstart"
       orient="auto"
       refY="0.0"
       refX="0.0"
       id="Arrow1Lstart"
       style="overflow:visible">
      <path
         id="path3802"
         d="M 0.0,0.0 L 5.0,-5.0 L -12.5,0.0 L 5.0,5.0 L 0.0,0.0 z "
         style="fill-rule:evenodd;stroke:#000000;stroke-width:1.0pt"
         transform="scale(0.8) translate(12.5,0)" />
    </marker>
    <marker
       inkscape:stockid="Arrow1Lstart"
       orient="auto"
       refY="0"
       refX="0"
       id="Arrow1Lstart-8"
       style="overflow:visible">
      <path
         inkscape:connector-curvature="0"
         id="path3802-9"
         d="M 0,0 5,-5 -12.5,0 5,5 0,0 z"
         style="fill-rule:evenodd;stroke:#000000;stroke-width:1pt"
         transform="matrix(0.8,0,0,0.8,10,0)" />
    </marker>
    <marker
       inkscape:stockid="Arrow1Lend"
       orient="auto"
       refY="0"
       refX="0"
       id="Arrow1Lend-9"
       style="overflow:visible">
      <path
         inkscape:connector-curvature="0"
         id="path3805-0"
         d="M 0,0 5,-5 -12.5,0 5,5 0,0 z"
         style="fill-rule:evenodd;stroke:#000000;stroke-width:1pt"
         transform="matrix(-0.8,0,0,-0.8,-10,0)" />
    </marker>
  </defs>
  <sodipodi:namedview
     id="base"
     pagecolor="#ffffff"
     bordercolor="#666666"
     borderopacity="1.0"
     inkscape:pageopacity="0.0"
     inkscape:pageshadow="2"
     inkscape:zoom="1.6970563"
     inkscape:cx="773.69081"
     inkscape:cy="843.47577"
     inkscape:current-layer="layer1"
     inkscape:document-units="px"
     showgrid="false"
     inkscape:window-width="1920"
     inkscape:window-height="1030"
     inkscape:window-x="0"
     inkscape:window-y="0"
     inkscape:window-maximized="1" />
  <metadata
     id="metadata5750">
    <rdf:RDF>
      <cc:Work
         rdf:about="">
        <dc:format>image/svg+xml</dc:format>
        <dc:type
           rdf:resource="http://purl.org/dc/dcmitype/StillImage" />
      </cc:Work>
    </rdf:RDF>
  </metadata>
  <g
     id="layer1"
     inkscape:label="Layer 1"
     inkscape:groupmode="layer">
    <g
       id="g2999"
       transform="translate(193.33333,3.3333356)">
      <rect
         y="207.92369"
         x="422.92371"
         height="80.819283"
         width="300.81927"
         id="rect2993"
         style="opacity:0.9;fill:#ffffff;fill-opacity:1;stroke:#000000;stroke-width:2.18072152;stroke-miterlimit:4;stroke-opacity:1;stroke-dasharray:none;stroke-dashoffset:0" />
      <text
         sodipodi:linespacing="125%"
         id="text2995"
         y="261.66666"
         x="448.33331"
         style="font-size:40px;font-style:normal;font-weight:normal;line-height:125%;letter-spacing:0px;word-spacing:0px;fill:#000000;fill-opacity:1;stroke:none;font-family:Sans"
         xml:space="preserve"><tspan
           y="261.66666"
           x="448.33331"
           id="tspan2997"
           sodipodi:role="line">ViennaMesh</tspan></text>
    </g>
    <g
       id="g5825"
       transform="translate(75.83334,33.333333)">
      <g
         id="g5819">
        <path
           sodipodi:type="arc"
           style="opacity:0.9;fill:#ffffff;fill-opacity:1;stroke:#000000;stroke-width:3;stroke-miterlimit:4;stroke-opacity:1;stroke-dasharray:none;stroke-dashoffset:0"
           id="path3004"
           sodipodi:cx="681.66669"
           sodipodi:cy="198.33333"
           sodipodi:rx="68.333336"
           sodipodi:ry="61.666668"
           d="m 750.00002,198.33333 c 0,34.05756 -30.59387,61.66667 -68.33333,61.66667 -37.73946,0 -68.33334,-27.60911 -68.33334,-61.66667 0,-34.05756 30.59388,-61.66667 68.33334,-61.66667 37.73946,0 68.33333,27.60911 68.33333,61.66667 z"
           transform="matrix(0.71518136,0,0,0.79249828,502.48469,259.48788)" />
        <path
           sodipodi:type="arc"
           style="opacity:0.9;fill:#ffffff;fill-opacity:1;stroke:#000000;stroke-width:3;stroke-miterlimit:4;stroke-opacity:1;stroke-dasharray:none;stroke-dashoffset:0"
           id="path3004-2"
           sodipodi:cx="681.66669"
           sodipodi:cy="198.33333"
           sodipodi:rx="68.333336"
           sodipodi:ry="61.666668"
           d="m 750.00002,198.33333 c 0,34.05756 -30.59387,61.66667 -68.33333,61.66667 -37.73946,0 -68.33334,-27.60911 -68.33334,-61.66667 0,-34.05756 30.59388,-61.66667 68.33334,-61.66667 37.73946,0 68.33333,27.60911 68.33333,61.66667 z"
           transform="matrix(0.71518136,0,0,0.79249828,303.04023,259.48788)" />
        <path
           sodipodi:type="arc"
           style="opacity:0.9;fill:#ffffff;fill-opacity:1;stroke:#000000;stroke-width:3;stroke-miterlimit:4;stroke-opacity:1;stroke-dasharray:none;stroke-dashoffset:0"
           id="path3004-4"
           sodipodi:cx="681.66669"
           sodipodi:cy="198.33333"
           sodipodi:rx="68.333336"
           sodipodi:ry="61.666668"
           d="m 750.00002,198.33333 c 0,34.05756 -30.59387,61.66667 -68.33333,61.66667 -37.73946,0 -68.33334,-27.60911 -68.33334,-61.66667 0,-34.05756 30.59388,-61.66667 68.33334,-61.66667 37.73946,0 68.33333,27.60911 68.33333,61.66667 z"
           transform="matrix(0.71518136,0,0,0.79249828,103.59576,259.48788)" />
        <path
           sodipodi:type="arc"
           style="opacity:0.9;fill:#ffffff;fill-opacity:1;stroke:#000000;stroke-width:3;stroke-miterlimit:4;stroke-opacity:1;stroke-dasharray:none;stroke-dashoffset:0"
           id="path3004-47"
           sodipodi:cx="681.66669"
           sodipodi:cy="198.33333"
           sodipodi:rx="68.333336"
           sodipodi:ry="61.666668"
           d="m 750.00002,198.33333 c 0,34.05756 -30.59387,61.66667 -68.33333,61.66667 -37.73946,0 -68.33334,-27.60911 -68.33334,-61.66667 0,-34.05756 30.59388,-61.66667 68.33334,-61.66667 37.73946,0 68.33333,27.60911 68.33333,61.66667 z"
           transform="matrix(0.71518136,0,0,0.79249828,-95.848643,259.48788)" />
      </g>
    </g>
    <path
       style="fill:none;stroke:#000000;stroke-width:2;stroke-linecap:butt;stroke-linejoin:miter;stroke-miterlimit:4;stroke-opacity:1;stroke-dasharray:none;marker-start:url(#Arrow1Lstart);marker-mid:none;marker-end:url(#Arrow1Lend)"
       d="M 617.43617,292.73134 499.78507,411.3761"
       id="path5832"
       inkscape:connector-curvature="0"
       sodipodi:nodetypes="cc" />
    <path
       style="fill:none;stroke:#000000;stroke-width:2;stroke-linecap:butt;stroke-linejoin:miter;stroke-miterlimit:4;stroke-opacity:1;stroke-dasharray:none;marker-start:url(#Arrow1Lstart);marker-mid:none;marker-end:url(#Arrow1Lend)"
       d="M 692.25593,294.61295 673.33333,400"
       id="path5834"
       inkscape:connector-curvature="0"
       sodipodi:nodetypes="cc" />
    <path
       style="fill:none;stroke:#000000;stroke-width:2;stroke-linecap:butt;stroke-linejoin:miter;stroke-miterlimit:4;stroke-opacity:1;stroke-dasharray:none;marker-start:url(#Arrow1Lstart);marker-mid:none;marker-end:url(#Arrow1Lend)"
       d="M 918.68091,293.34292 1033.3237,411.65708"
       id="path5838"
       inkscape:connector-curvature="0"
       sodipodi:nodetypes="cc" />
    <path
       style="fill:none;stroke:#000000;stroke-width:2;stroke-linecap:butt;stroke-linejoin:miter;stroke-miterlimit:4;stroke-opacity:1;stroke-dasharray:none;marker-start:url(#Arrow1Lstart);marker-mid:none;marker-end:url(#Arrow1Lend)"
       d="m 814.24748,293.51636 37.92763,108.45543"
       id="path5834-0"
       inkscape:connector-curvature="0"
       sodipodi:nodetypes="cc" />
  </g>
</svg>
